<?xml version="1.0" encoding="UTF-8"?>
<svg width="286px" height="35px" viewBox="0 0 286 35" version="1.1" xmlns="http://www.w3.org/2000/svg" xmlns:xlink="http://www.w3.org/1999/xlink">
    <!-- Generator: Sketch 49.3 (51167) - http://www.bohemiancoding.com/sketch -->
    <title>Group 5</title>
    <desc>Created with Sketch.</desc>
    <defs></defs>
    <g id="Page-1" stroke="none" stroke-width="1" fill="none" fill-rule="evenodd">
        <g id="Group-5" fill-rule="nonzero">
            <polygon id="Shape" fill="#FFCD34" points="54.6 26.13 44.39 9.13 47.2 9.13 47.2 0.31 30.2 0.31 30.2 9.16 33 9.16 29.1 15.64 25.2 9.16 28 9.16 28 0.31 11 0.31 11 9.16 13.81 9.16 3.6 26.16 0 26.16 0 35 17.33 35 17.33 26.13 14.22 26.13 19.54 17.29 21.6 20.71 19.6 20.71 19.6 29.56 38.6 29.56 38.6 20.71 36.6 20.71 38.67 17.29 44 26.13 40.91 26.13 40.91 35 58.24 35 58.24 26.13"></polygon>
            <g id="Group-3" transform="translate(65.000000, 11.000000)" fill="#FFFFFF" stroke="#FFFFFF" stroke-width="0.2">
                <path d="M211.19,3.53 L211.27,6.25 L210.91,6.25 C210.58,4.51 210.16,4.25 207.86,4.25 L207.86,12.37 C207.805695,12.7474014 207.932454,13.1283229 208.202065,13.3979346 C208.471677,13.6675463 208.852599,13.7943054 209.23,13.74 L209.23,14.13 L205,14.13 L205,13.74 C205.378988,13.7978405 205.762965,13.6726557 206.035037,13.4025552 C206.307109,13.1324547 206.435083,12.7493987 206.38,12.37 L206.38,4.22 C204.08,4.22 203.66,4.51 203.33,6.22 L203,6.22 L203,3.53 L211.19,3.53 Z" id="Shape"></path>
                <path d="M197.08,3.33 C194.47,3.33 192.36,5.47 192.36,8.8 C192.36,12.13 194.47,14.27 197.08,14.27 C199.69,14.27 201.8,12.13 201.8,8.8 C201.8,5.47 199.68,3.33 197.08,3.33 Z M197.08,13.65 C195.08,13.65 193.97,11.75 193.97,8.8 C193.97,5.85 195.1,4 197.08,4 C199.06,4 200.19,5.9 200.19,8.85 C200.19,11.8 199.06,13.65 197.08,13.65 Z" id="Shape"></path>
                <path d="M219.43,12.8 C219.24,12.3 215.7,3.38 215.7,3.38 L215.34,3.38 C215.34,3.38 212.21,11.56 211.83,12.52 C211.45,13.48 210.98,13.71 210.61,13.71 L210.61,14.1 L213.49,14.1 L213.49,13.71 C213.038107,13.7396699 212.642305,13.4098349 212.59,12.96 C212.584371,12.8248166 212.601268,12.6896383 212.64,12.56 L213.34,10.65 L217,10.65 C217.38,11.65 217.66,12.45 217.67,12.49 C217.733218,12.6398046 217.773666,12.7982251 217.79,12.96 C217.79,13.37 217.46,13.71 216.79,13.71 L216.79,14.1 L220.49,14.1 L220.49,13.71 C219.996932,13.6231397 219.590513,13.2742324 219.43,12.8 Z M213.62,9.91 C214.33,7.97 215.18,5.69 215.18,5.69 C215.18,5.69 216,8 216.73,9.91 L213.62,9.91 Z" id="Shape"></path>
                <path d="M181.84,11.35 C181.528732,12.5982182 180.385559,13.4576842 179.1,13.41 L177.43,13.41 C176.81,13.41 176.55,13.2 176.55,12.7 L176.55,8.94 L178.82,8.94 C179.7,8.94 180.17,9.43 180.31,10.37 L180.66,10.37 L180.66,6.71 L180.28,6.71 C180.23,7.71 179.7,8.22 178.91,8.22 L176.55,8.22 L176.55,4.69 C176.55,4.3 176.8,4.22 177.12,4.22 L179.12,4.22 C180.39,4.22 180.83,4.74 181.12,5.92 L181.48,5.92 L181.39,3.53 L173.79,3.53 L173.79,3.92 C174.68,3.92 175.08,4.34 175.08,5.29 L175.08,12.34 C175.08,13.29 174.68,13.71 173.79,13.71 L173.79,14.1 L181.59,14.1 L182.27,11.35 L181.84,11.35 Z" id="Shape"></path>
                <path d="M189.89,3.31 L190.19,6.8 L189.8,6.8 C189.28,5.08 188.4,4 187.14,4 C186.756627,3.97633907 186.381533,4.11833089 186.109932,4.38993209 C185.838331,4.66153329 185.696339,5.03662736 185.72,5.42 C185.72,6.35 186.4,6.9 187.25,7.48 L189,8.66 C189.906833,9.25624316 190.477984,10.2464841 190.54,11.33 C190.562299,12.1322777 190.253394,12.908364 189.685879,13.475879 C189.118364,14.0433941 188.342278,14.3522985 187.54,14.33 C186.54,14.33 185.84,13.81 185.32,13.81 C185.03,13.81 184.89,14.1 184.82,14.33 L184.46,14.33 L184,10.8 L184.38,10.8 C185.02,12.6 185.97,13.66 187.29,13.66 C187.759552,13.6722813 188.212566,13.4862518 188.537976,13.1475215 C188.863385,12.8087912 189.0311,12.3486815 189,11.88 C188.984892,11.0941675 188.549828,10.3766934 187.86,10 L185.77,8.5 C184.913896,7.9633247 184.410348,7.00963452 184.45,6 C184.410101,5.29181845 184.670502,4.599613 185.167276,4.09332309 C185.664049,3.58703318 186.351189,3.31354461 187.06,3.34 C187.77,3.34 188.57,3.81 189.01,3.81 C189.13808,3.81545519 189.26283,3.76835635 189.355346,3.67961607 C189.447862,3.5908758 189.500116,3.46819563 189.5,3.34 L189.89,3.31 Z" id="Shape"></path>
                <path d="M168.89,3.53 L168.89,3.92 C169.71,3.92 170.21,4.55 170.21,5.51 L170.21,11.07 L164.72,3.53 L162.33,3.53 L162.33,3.92 C162.714707,3.91905973 163.080381,4.08726986 163.33,4.38 L163.64,4.79 L163.64,11.88 C163.64,13.08 163.22,13.71 162.26,13.71 L162.26,14.1 L165.64,14.1 L165.64,13.71 C164.81,13.71 164.32,13.17 164.32,12.2 L164.32,5.71 L170.63,14.26 L170.86,14.26 L170.86,5.76 C170.86,4.41 171.4,3.92 172.22,3.92 L172.22,3.53 L168.89,3.53 Z" id="Shape"></path>
                <path d="M157.17,3.53 L157.17,3.92 C157.99,3.92 158.49,4.55 158.49,5.51 L158.49,11.07 L153,3.53 L150.61,3.53 L150.61,3.92 C150.994707,3.91905973 151.360381,4.08726986 151.61,4.38 L151.92,4.79 L151.92,11.88 C151.92,13.08 151.5,13.71 150.54,13.71 L150.54,14.1 L154,14.1 L154,13.71 C153.18,13.71 152.68,13.17 152.68,12.2 L152.68,5.71 L159,14.26 L159.22,14.26 L159.22,5.76 C159.22,4.41 159.77,3.92 160.6,3.92 L160.6,3.53 L157.17,3.53 Z" id="Shape"></path>
                <path d="M143,0.49 L143,0.1 L139.73,0.1 L135.48,11.52 L131.21,0.1 L127.88,0.1 L127.88,0.49 C129.28,0.49 129.67,1.25 129.67,2.63 L129.67,11.21 C129.67,13.21 129.11,13.71 127.86,13.71 L127.86,14.1 L132.17,14.1 L132.17,13.71 C130.96,13.71 130.38,13.19 130.38,11.21 L130.38,2.21 L134.83,14.1 L135.24,14.1 L139.77,2 L139.77,11.19 C139.77,13.19 139.32,13.69 138.07,13.69 L138.07,14.08 L143,14.08 L143,13.69 C141.79,13.69 141.32,13.17 141.32,11.19 L141.32,2.43 C141.33,0.84 142.18,0.49 143,0.49 Z" id="Shape"></path>
                <path d="M147,5.29 C146.945695,4.91259856 147.072454,4.53167709 147.342065,4.2620654 C147.611677,3.99245372 147.992599,3.86569463 148.37,3.92 L148.37,3.53 L144.12,3.53 L144.12,3.92 C144.497401,3.86569463 144.878323,3.99245372 145.147935,4.2620654 C145.417546,4.53167709 145.544305,4.91259856 145.49,5.29 L145.49,12.34 C145.544305,12.7174014 145.417546,13.0983229 145.147935,13.3679346 C144.878323,13.6375463 144.497401,13.7643054 144.12,13.71 L144.12,14.1 L148.37,14.1 L148.37,13.71 C147.992599,13.7643054 147.611677,13.6375463 147.342065,13.3679346 C147.072454,13.0983229 146.945695,12.7174014 147,12.34 L147,5.29 Z" id="Shape"></path>
                <path d="M108.08,3.34 C105.48,3.34 103.36,5.49 103.36,8.82 C103.36,12.15 105.48,14.29 108.08,14.29 C110.68,14.29 112.8,12.15 112.8,8.82 C112.8,5.49 110.69,3.34 108.08,3.34 Z M108.08,13.67 C106.08,13.67 104.97,11.77 104.97,8.82 C104.97,5.87 106.1,4 108.08,4 C110.06,4 111.19,5.9 111.19,8.86 C111.19,11.82 110.06,13.67 108.08,13.67 Z" id="Shape"></path>
                <path d="M122,3.53 L114.31,3.53 L114.31,3.92 C115.2,3.92 115.6,4.34 115.6,5.29 L115.6,12.34 C115.6,13.29 115.2,13.71 114.31,13.71 L114.31,14.1 L118.4,14.1 L118.4,13.71 C118.016982,13.7797678 117.623922,13.6593867 117.345666,13.3870934 C117.06741,13.1148001 116.938544,12.7244388 117,12.34 L117,8.94 L119.19,8.94 C120.07,8.94 120.54,9.43 120.68,10.37 L121.03,10.37 L121.03,6.71 L120.65,6.71 C120.59,7.71 120.07,8.22 119.27,8.22 L117,8.22 L117,4.69 C117,4.3 117.24,4.22 117.57,4.22 L119.69,4.22 C120.95,4.22 121.39,4.74 121.69,5.92 L122,5.92 L122,3.53 Z" id="Shape"></path>
                <path d="M86.67,3.55 L86.75,6.26 L86.4,6.26 C86.07,4.52 85.64,4.26 83.35,4.26 L83.35,12.39 C83.2956946,12.7674014 83.4224537,13.1483229 83.6920654,13.4179346 C83.9616771,13.6875463 84.3425986,13.8143054 84.72,13.76 L84.72,14.14 L80.47,14.14 L80.47,13.76 C80.8474014,13.8143054 81.2283229,13.6875463 81.4979346,13.4179346 C81.7675463,13.1483229 81.8943054,12.7674014 81.84,12.39 L81.84,4.23 C79.55,4.23 79.13,4.52 78.84,6.23 L78.48,6.23 L78.56,3.52 L86.67,3.55 Z" id="Shape"></path>
                <path d="M94.83,3.93 L94.83,3.55 L98.06,3.55 L98.06,3.93 C97.4406382,4.0416786 96.8945366,4.40333528 96.55,4.93 L94,9.28 L94,12.36 C94,13.36 94.37,13.73 95.48,13.73 L95.48,14.11 L91,14.11 L91,13.73 C92.11,13.73 92.49,13.38 92.49,12.36 L92.49,9.45 L89.64,5 C89.3243483,4.4590008 88.7797058,4.09099913 88.16,4 L88.16,3.55 L92.33,3.55 L92.33,3.93 C91.75,3.93 91.33,4.19 91.33,4.49 C91.3439834,4.68255925 91.3985083,4.86998864 91.49,5.04 L93.61,8.53 C93.61,8.53 95.61,5 95.69,4.9 C95.7521905,4.79773017 95.7834484,4.67964485 95.78,4.56 C95.79,4.27 95.62,3.93 94.83,3.93 Z" id="Shape"></path>
                <path d="M69.82,3.31 L70.12,6.8 L69.74,6.8 C69.22,5.08 68.34,4.03 67.08,4.03 C66.6949505,4.00333177 66.3171011,4.14399169 66.0432218,4.41595576 C65.7693425,4.68791983 65.6260345,5.06477281 65.65,5.45 C65.65,6.38 66.33,6.93 67.19,7.51 L68.89,8.66 C69.7906649,9.26065501 70.3571594,10.2492434 70.42,11.33 C70.4422985,12.1322777 70.1333941,12.908364 69.565879,13.475879 C68.998364,14.0433941 68.2222777,14.3522985 67.42,14.33 C66.42,14.33 65.72,13.81 65.2,13.81 C64.91,13.81 64.77,14.1 64.71,14.33 L64.35,14.33 L63.91,10.81 L64.29,10.81 C64.94,12.61 65.88,13.67 67.2,13.67 C67.6729723,13.6880562 68.1313912,13.504563 68.4612757,13.1651444 C68.7911601,12.8257257 68.9615211,12.362266 68.93,11.89 C68.918463,11.1005664 68.4829018,10.3784517 67.79,10 L65.71,8.5 C64.8538962,7.9633247 64.3503477,7.00963452 64.39,6 C64.3412566,5.28678528 64.597727,4.58643052 65.0955355,4.07336347 C65.5933441,3.56029642 66.285639,3.28280493 67,3.31 C67.72,3.31 68.51,3.78 68.95,3.78 C69.0790147,3.78540605 69.2047662,3.73860312 69.2988524,3.65016212 C69.3929386,3.56172113 69.447423,3.43910219 69.45,3.31 L69.82,3.31 Z" id="Shape"></path>
                <path d="M75.64,5.3 C75.5864351,4.92457918 75.7119741,4.54576066 75.9791411,4.27662916 C76.2463082,4.00749765 76.6241968,3.87918684 77,3.93 L77,3.55 L72.75,3.55 L72.75,3.93 C73.1274014,3.87569463 73.5083229,4.00245372 73.7779346,4.2720654 C74.0475463,4.54167709 74.1743054,4.92259856 74.12,5.3 L74.12,12.36 C74.1743054,12.7374014 74.0475463,13.1183229 73.7779346,13.3879346 C73.5083229,13.6575463 73.1274014,13.7843054 72.75,13.73 L72.75,14.11 L77,14.11 L77,13.73 C76.6225986,13.7843054 76.2416771,13.6575463 75.9720654,13.3879346 C75.7024537,13.1183229 75.5756946,12.7374014 75.63,12.36 L75.64,5.3 Z" id="Shape"></path>
                <path d="M51.43,11.35 C51.1153584,12.5959787 49.9743449,13.4538209 48.69,13.41 L47,13.41 C46.39,13.41 46.12,13.2 46.12,12.7 L46.12,8.94 L48.4,8.94 C49.28,8.94 49.75,9.43 49.89,10.37 L50.24,10.37 L50.24,6.71 L49.86,6.71 C49.8,7.71 49.28,8.22 48.48,8.22 L46.12,8.22 L46.12,4.69 C46.12,4.3 46.37,4.22 46.7,4.22 L48.7,4.22 C49.96,4.22 50.4,4.74 50.7,5.92 L51.05,5.92 L51,3.53 L43.4,3.53 L43.4,3.92 C44.29,3.92 44.69,4.34 44.69,5.29 L44.69,12.34 C44.69,13.29 44.29,13.71 43.4,13.71 L43.4,14.1 L51.2,14.1 L51.88,11.35 L51.43,11.35 Z" id="Shape"></path>
                <path d="M61.48,13.25 C61.23,12.95 58.89,9.74 58.37,9.03 C60.26,8.62 60.93,7.66 60.93,6.28 C60.93,4.63 59.69,3.53 57.44,3.53 L53.22,3.53 L53.22,3.92 C54.1,3.92 54.51,4.34 54.51,5.29 L54.51,12.34 C54.51,13.29 54.1,13.71 53.22,13.71 L53.22,14.1 L57.31,14.1 L57.31,13.71 C56.42,13.71 56.01,13.29 56.01,12.34 L56.01,9.24 C56.3,9.24 56.56,9.24 56.82,9.24 L60.24,14.13 L62.55,14.13 L62.55,13.8 C62.1294542,13.7842802 61.7375446,13.5828313 61.48,13.25 Z M56,8.61 L56,5 C56,4.27 56.15,4.09 57,4.09 C58.78,4.09 59.44,4.97 59.44,6.29 C59.44,7.91 58.21,8.57 56.44,8.57 L56,8.61 Z" id="Shape"></path>
                <path d="M29,5.29 C28.9456946,4.91259856 29.0724537,4.53167709 29.3420654,4.2620654 C29.6116771,3.99245372 29.9925986,3.86569463 30.37,3.92 L30.37,3.53 L26.15,3.53 L26.15,3.92 C26.5289881,3.86215947 26.9129646,3.9873443 27.1850367,4.25744482 C27.4571087,4.52754533 27.5850828,4.91060129 27.53,5.29 L27.53,12.34 C27.5850828,12.7193987 27.4571087,13.1024547 27.1850367,13.3725552 C26.9129646,13.6426557 26.5289881,13.7678405 26.15,13.71 L26.15,14.1 L30.41,14.1 L30.41,13.71 C30.0263258,13.7787124 29.6330448,13.6583912 29.353493,13.3867699 C29.0739413,13.1151487 28.9423547,12.7254923 29,12.34 L29,5.29 Z" id="Shape"></path>
                <path d="M36,3.92 L36,3.53 L32.14,3.53 L32.14,3.92 C32.6,3.92 33.14,4.22 33.43,5.01 L37.24,14.26 L37.49,14.26 L40.81,5 C41.09,4.26 41.55,3.91 41.99,3.91 L41.99,3.53 L38.99,3.53 L38.99,3.92 C39.65,3.92 39.99,4.27 39.99,4.74 C39.9895216,4.88049805 39.9623743,5.019628 39.91,5.15 L37.69,11.38 C37.69,11.38 35.13,5.25 35.06,5.06 C35.0004882,4.9104519 34.9699461,4.75095431 34.97,4.59 C35,4.17 35.34,3.92 36,3.92 Z" id="Shape"></path>
                <path d="M0.54,0.49 C1.7,0.49 2.3,1.06 2.3,2.71 L2.3,9.24 C2.3,12.54 4.11,14.24 7.3,14.24 C8.60591815,14.3378359 9.88926105,13.8593656 10.8123832,12.930474 C11.7355053,12.0015823 12.2059704,10.7152832 12.1,9.41 L12.1,2.32 C12.1,1.23 12.43,0.49 13.75,0.49 L13.75,0.1 L9.55,0.1 L9.55,0.49 C10.73,0.49 11.22,1.01 11.25,2.43 C11.28,3.85 11.36,7.59 11.36,9.82 C11.2157584,11.8239262 9.51782208,13.3581439 7.50957751,13.2991567 C5.50133293,13.2401696 3.89637381,11.6089376 3.87,9.6 L3.87,2.3 C3.87,1.22 4.28,0.49 5.51,0.49 L5.51,0.1 L0.51,0.1 L0.54,0.49 Z" id="Shape"></path>
                <path d="M20.58,3.53 L20.58,3.92 C21.4,3.92 21.9,4.55 21.9,5.51 L21.9,11.07 L16.41,3.53 L14,3.53 L14,3.92 C14.3835459,3.92430759 14.7471521,4.09156643 15,4.38 L15.3,4.79 L15.3,11.88 C15.3,13.08 14.88,13.71 13.93,13.71 L13.93,14.1 L17.3,14.1 L17.3,13.71 C16.48,13.71 15.98,13.17 15.98,12.2 L15.98,5.71 L22.3,14.26 L22.51,14.26 L22.51,5.76 C22.51,4.41 23.06,3.92 23.89,3.92 L23.89,3.53 L20.58,3.53 Z" id="Shape"></path>
            </g>
        </g>
    </g>
</svg>